<svg id="Layer_1" enable-background="new 0 0 512 512" height="512" viewBox="0 0 512 512" width="512" xmlns="http://www.w3.org/2000/svg"><g><path d="m265.348 299.109h-242.245c-12.759 0-23.103-10.343-23.103-23.102v-82.25c0-12.759 10.344-23.103 23.103-23.103h242.245c12.759 0 23.103 10.344 23.103 23.103v82.25c0 12.759-10.344 23.102-23.103 23.102z" fill="#88c3e0"/><path d="m265.787 170.653h-30.905c12.517 0 22.664 10.544 22.664 23.55v81.356c0 13.006-10.147 23.55-22.664 23.55h30.905c12.517 0 22.664-10.544 22.664-23.55v-81.356c0-13.006-10.147-23.55-22.664-23.55z" fill="#6eabc9"/><path d="m128.773 406.837h30.905v56.828h-30.905z" fill="#43809f"/><path d="m508 512h-504c-2.209 0-4-1.791-4-4v-22.905c0-2.209 1.791-4 4-4h504c2.209 0 4 1.791 4 4v22.905c0 2.209-1.791 4-4 4z" fill="#43809f"/><path d="m287.195 63.84h-285.628l17.729-53.281c2.102-6.294 8.159-10.559 14.989-10.559h220.459c6.83 0 12.888 4.265 14.989 10.559z" fill="#29cef6"/><path d="m269.444 10.559c-2.102-6.294-8.159-10.559-14.989-10.559h-30.905c6.83 0 12.888 4.265 14.989 10.559l17.461 53.281h30.905z" fill="#22b5ed"/><path d="m265.787 173.07h-243.123c-12.517 0-22.664-10.147-22.664-22.664v-78.293c0-12.517 10.147-22.664 22.664-22.664h243.123c12.517 0 22.664 10.147 22.664 22.664v78.294c0 12.516-10.147 22.663-22.664 22.663z" fill="#a9dbf5"/><path d="m265.787 49.449h-30.905c12.517 0 22.664 10.147 22.664 22.664v78.294c0 12.517-10.147 22.664-22.664 22.664h30.905c12.517 0 22.664-10.147 22.664-22.664v-78.294c0-12.517-10.147-22.664-22.664-22.664z" fill="#88c3e0"/><path d="m30.905 138.044v-53.569c0-2.276 1.845-4.121 4.121-4.121h218.398c2.276 0 4.121 1.845 4.121 4.121v53.569c0 2.276-1.845 4.121-4.121 4.121h-218.398c-2.276 0-4.121-1.845-4.121-4.121z" fill="#43809f"/><path d="m78.287 113.32c-8.534 0-15.453-6.918-15.453-15.453v-17.513h30.905v17.513c0 8.535-6.918 15.453-15.452 15.453z" fill="#f78e36"/><path d="m129.803 113.32c-8.534 0-15.453-6.918-15.453-15.453v-17.513h30.905v17.513c.001 8.535-6.918 15.453-15.452 15.453z" fill="#f78e36"/><path d="m30.905 261.666v-53.569c0-2.276 1.845-4.121 4.121-4.121h218.398c2.276 0 4.121 1.845 4.121 4.121v53.569c0 2.276-1.845 4.121-4.121 4.121h-218.398c-2.276 0-4.121-1.845-4.121-4.121z" fill="#43809f"/><path d="m78.287 236.942c-8.534 0-15.453-6.918-15.453-15.453v-17.513h30.905v17.513c0 8.534-6.918 15.453-15.452 15.453z" fill="#f78e36"/><path d="m129.803 236.942c-8.534 0-15.453-6.918-15.453-15.453v-17.513h30.905v17.513c.001 8.534-6.918 15.453-15.452 15.453z" fill="#f78e36"/><path d="m265.787 420.314h-243.123c-12.517 0-22.664-10.147-22.664-22.664v-78.294c0-12.517 10.147-22.664 22.664-22.664h243.123c12.517 0 22.664 10.147 22.664 22.664v78.294c0 12.517-10.147 22.664-22.664 22.664z" fill="#a9dbf5"/><path d="m265.787 296.692h-30.905c12.517 0 22.664 10.147 22.664 22.664v78.294c0 12.517-10.147 22.664-22.664 22.664h30.905c12.517 0 22.664-10.147 22.664-22.664v-78.294c0-12.517-10.147-22.664-22.664-22.664z" fill="#88c3e0"/><path d="m30.905 385.288v-53.569c0-2.276 1.845-4.121 4.121-4.121h218.398c2.276 0 4.121 1.845 4.121 4.121v53.569c0 2.276-1.845 4.121-4.121 4.121h-218.398c-2.276-.001-4.121-1.845-4.121-4.121z" fill="#43809f"/><g fill="#f78e36"><path d="m78.287 360.563c-8.534 0-15.453-6.918-15.453-15.453v-17.513h30.905v17.513c0 8.535-6.918 15.453-15.452 15.453z"/><path d="m129.803 360.563c-8.534 0-15.453-6.918-15.453-15.453v-17.513h30.905v17.513c.001 8.535-6.918 15.453-15.452 15.453z"/><path d="m190.583 481.095v30.905h-92.716v-30.905h30.906v-30.906h30.905v30.906z"/></g><path d="m378.77 104.069c-62.124 1.116-113.669 45.537-125.749 104.354-.231 1.127-.906 2.113-1.885 2.718l-34.16 21.1c-1.963 1.213-1.963 4.068 0 5.28l34.16 21.1c.979.605 1.653 1.59 1.885 2.717 12.236 59.572 64.954 104.376 128.146 104.376 72.573 0 131.345-59.089 130.83-131.781-.511-72.022-61.215-131.157-133.227-129.864z" fill="#f3f3f3"/><path d="m378.77 104.07c-4.469.08-8.881.392-13.23.909 64 7.716 115.082 62.913 115.55 128.953.478 67.459-50.105 123.194-115.391 130.87 5.073.598 10.233.911 15.466.911 72.573 0 131.345-59.089 130.83-131.782-.509-72.02-61.213-131.155-133.225-129.861z" fill="#e4e4e4"/><path d="m353.65 308.573h-28.845c-4.552 0-8.241-3.69-8.241-8.241v-28.845c0-4.552 3.69-8.241 8.241-8.241h28.845c4.552 0 8.241 3.69 8.241 8.241v28.845c.001 4.551-3.689 8.241-8.241 8.241z" fill="#f78e36"/><path d="m398.978 308.573h-28.845c-4.552 0-8.241-3.69-8.241-8.241v-28.845c0-4.552 3.69-8.241 8.241-8.241h28.845c4.552 0 8.241 3.69 8.241 8.241v28.845c.001 4.551-3.689 8.241-8.241 8.241z" fill="#29cef6"/><path d="m444.306 308.573h-28.845c-4.552 0-8.241-3.69-8.241-8.241v-28.845c0-4.552 3.69-8.241 8.241-8.241h28.845c4.552 0 8.241 3.69 8.241 8.241v28.845c.001 4.551-3.689 8.241-8.241 8.241z" fill="#7be492"/><path d="m452.584 149.972c-2.901-2.959-7.649-3.002-10.606-.104l-65.163 63.896-40.391-41.128c-2.9-2.954-7.65-2.999-10.605-.096-2.955 2.902-2.998 7.65-.096 10.605l45.642 46.475c1.468 1.495 3.408 2.245 5.351 2.245 1.896 0 3.791-.714 5.251-2.145l70.514-69.142c2.957-2.9 3.002-7.648.103-10.606z" fill="#43809f"/></g></svg>