<svg xmlns="http://www.w3.org/2000/svg" xmlns:xlink="http://www.w3.org/1999/xlink" viewBox="0 0 500 250"><defs><linearGradient id="A" x1="40583" x2="40583" y1="13515" y2="36339" xlink:href="#O"><stop stop-color="rgba(0, 0, 0, 1)" offset="0"/></linearGradient><linearGradient id="B" x1="42395" x2="42395" y1="21297" y2="34319" xlink:href="#O"><stop stop-color="rgba(0, 0, 0, 1)" offset="0"/></linearGradient><linearGradient id="C" x1="39156" x2="39156" y1="17210" y2="27047" xlink:href="#O"><stop stop-color="rgba(0, 0, 0, 1)" offset="0"/></linearGradient><linearGradient id="D" x1="56616" x2="56616" y1="3430" y2="12030" xlink:href="#O"><stop stop-color="rgba(0, 0, 0, 1)" offset="0"/></linearGradient><linearGradient id="E" x1="5455.9" x2="5455.9" y1="3292.2" y2="11676" xlink:href="#O"><stop stop-color="rgba(0, 0, 0, 1)" offset="0"/></linearGradient><linearGradient id="F" x1="48890" x2="48890" y1="3296" y2="11677" xlink:href="#O"><stop stop-color="rgba(0, 0, 0, 1)" offset="0"/></linearGradient><linearGradient id="G" x1="16460" x2="16460" y1="3430" y2="9757.9" xlink:href="#O"><stop stop-color="rgba(0, 0, 0, 1)" offset="0"/></linearGradient><linearGradient id="H" x1="26250" x2="26250" y1="3342" y2="9756.6" xlink:href="#O"><stop stop-color="rgba(0, 0, 0, 1)" offset="0"/></linearGradient><linearGradient id="I" x1="33732" x2="33732" y1="1091.9" y2="9755.9" xlink:href="#O"><stop stop-color="rgba(0, 0, 0, 1)" offset="0"/></linearGradient><linearGradient id="J" x1="41426" x2="41426" y1="3341.6" y2="9755.5" xlink:href="#O"><stop stop-color="rgba(0, 0, 0, 1)" offset="0"/></linearGradient><linearGradient id="K" x1="64000" x2="64000" y1="3340.3" y2="9757.4" xlink:href="#O"><stop stop-color="rgba(0, 0, 0, 1)" offset="0"/></linearGradient><linearGradient id="L" x1="70535" x2="70535" y1="3430" y2="9760" xlink:href="#O"><stop stop-color="rgba(0, 0, 0, 1)" offset="0"/></linearGradient><linearGradient id="M" x1="76316" x2="76316" y1="3341.4" y2="9758.3" xlink:href="#O"><stop stop-color="rgba(0, 0, 0, 1)" offset="0"/></linearGradient><linearGradient id="N" x1="545.05" x2="545.05" y1="-1504.4" y2="751" gradientTransform="matrix(.003778 .99999 -1.654 .006249 -57.011 -878.44)" xlink:href="#O"><stop stop-color="tomato" offset="0"/><stop stop-color="#ffc04a" offset="1"/></linearGradient><linearGradient id="O" gradientUnits="userSpaceOnUse"/></defs><g transform="matrix(.060873 0 0 .060873 217.5 102.33)"><path d="M1832 629.52c0 67.089-54.387 121.48-121.48 121.48s-121.48-54.387-121.48-121.48c0-9.423 1.073-18.595 3.103-27.402l-273.73-246.47c-36.257 25.298-80.355 40.134-127.92 40.134-85.844 0-160.4-48.328-197.94-119.26l-613.25 187.43c-18.986 81.777-92.306 142.72-179.86 142.72-101.97 0-184.64-82.666-184.64-184.64 0-23.34 4.33-45.668 12.232-66.225l-272.3-190.66c-47.558 45.098-111.81 72.764-182.52 72.764-40.691 0-79.243-9.161-113.7-25.532l-230.98 349.18c8.936 15.655 14.042 33.779 14.042 53.095 0 59.241-48.025 107.27-107.27 107.27s-107.27-48.025-107.27-107.27 48.025-107.27 107.27-107.27c6.514 0 12.893.581 19.087 1.693l230.96-349.14c-47.855-47.99-77.441-114.21-77.441-187.34a268.12 268.12 0 0 1 1.52-28.562l-461.77-225.22c-24.186 27.563-59.673 44.964-99.225 44.964-72.88 0-131.96-59.08-131.96-131.96s59.08-131.96 131.96-131.96c72.838 0 131.89 59.015 131.96 131.84l455.5 222.16c43.569-86.912 133.48-146.57 237.32-146.57 57.302 0 110.36 18.166 153.73 49.054l321.62-321.62c-14.558-25.836-22.883-55.784-22.883-87.714 0-28.931 6.834-56.236 18.948-80.328l-578.33-257.49c-29.933 34.641-74.189 56.563-123.56 56.563-90.154 0-163.24-73.085-163.24-163.24s73.085-163.24 163.24-163.24 163.24 73.085 163.24 163.24a164.63 164.63 0 0 1-1.504 22.251l606.65 270.1c25.714-15.42 55.682-24.265 87.677-24.265 9.992 0 19.786.863 29.315 2.519l221.58-475.08c-19.981-21.498-32.201-50.308-32.201-81.973 0-66.515 53.921-120.44 120.44-120.44s120.44 53.921 120.44 120.44c0 12.657-1.952 24.858-5.573 36.318l459.39 346.17c22.528-14.078 49.152-22.215 77.676-22.215 81.062 0 146.78 65.714 146.78 146.78 0 11.06-1.223 21.835-3.542 32.195l493.7 285.04 408.07-330.45c-4.519-12.859-6.977-26.688-6.977-41.091 0-68.425 55.47-123.9 123.9-123.9s123.9 55.47 123.9 123.9-55.47 123.9-123.9 123.9c-20.021 0-38.933-4.749-55.67-13.182l-396.53 321.1 407.4 581.83c1.91-.127 3.838-.191 5.78-.191 47.473 0 85.958 38.485 85.958 85.958s-38.485 85.958-85.958 85.958-85.958-38.485-85.958-85.958a85.77 85.77 0 0 1 5.639-30.687l-418.42-597.57-528.78-305.29c-14.09 12.059-30.491 21.495-48.447 27.552v690.5c101.9 20.943 178.52 111.14 178.52 219.23 0 42.524-11.859 82.279-32.451 116.14l264.56 238.21c18.606-11.58 40.571-18.269 64.099-18.269 67.089 0 121.48 54.387 121.48 121.48zM-209.1-177.61c29.387 42.708 46.589 94.451 46.589 150.21 0 42.409-9.95 82.494-27.644 118.05l271.05 189.79c32.069-26.87 73.402-43.048 118.51-43.048 83.851 0 154.65 55.893 177.16 132.46l590.74-180.55c-.438-5.719-.661-11.499-.661-17.33 0-51.045 17.088-98.1 45.856-135.75l-665.7-599.4c-30.148 51.849-85.611 86.612-149.04 86.612-30.945 0-59.994-8.274-85.132-22.768zM1083.4-24.63a222.32 222.32 0 0 1 59.712-22.202v-690.52c-58.681-19.213-101.07-74.416-101.07-139.52 0-18.744 3.513-36.666 9.917-53.146l-460.1-346.71c-16.478 8.466-35.163 13.244-54.963 13.244a121.6 121.6 0 0 1-5.932-.144l-221.82 475.6c34.548 29.616 57.571 72.744 61.228 121.4z" fill="url(#N)" paint-order="fill"/><g transform="matrix(.1 0 0 -.1 -3511.8 2121.5)"><path d="M40281 36325c-171-27-356-101-516-206-100-66-285-250-348-346-97-147-162-304-198-476-31-147-31-372 0-517 33-157 106-330 192-457l29-41-2145-4592h-180c-242 0-378-18-580-77-95-27-283-103-323-129-13-9-31-14-41-11-9 2-5750 2572-5750 2572v155c0 510-190 960-557 1322-442 434-1069 621-1672 497-139-28-221-54-359-114-358-155-649-405-855-737-451-726-341-1667 265-2281 319-323 718-507 1190-548 483-43 1002 137 1382 479l99 89 5364-2402c1-1-11-34-27-73-38-91-85-260-108-382-14-73-18-148-18-320 0-198 3-238 23-335 30-138 88-313 145-437l45-95-2973-2971-85 50c-266 157-581 277-880 337-323 65-726 70-1045 15-764-132-1456-585-1888-1234-38-58-74-104-81-102-14 4-4143 1879-4158 1884-28 10-28 11-28 101-1 571-373 1136-912 1386-420 195-897 198-1325 8-426-190-757-578-879-1032-57-213-68-482-29-700 60-336 257-680 518-906 299-259 650-390 1047-389 382 0 693 113 1014 368l54 43 4301-1992c-22-13-25-414-5-589 67-579 306-1124 684-1558l63-72-2047-3017-109-162-100-1c-457-2-886-267-1091-673-307-607-70-1338 533-1650 197-102 382-142 608-134 813 32 1369 822 1123 1597-16 52-36 106-43 120-12 23 2025 3020 2069 3075l92 113c9 12 28 8 120-26 136-50 355-105 539-134 121-20 177-22 415-22 310 1 438 15 697 79 386 94 784 293 1110 553l102 81 2458-1752-28-107c-78-300-79-645-4-933 57-220 158-449 270-617 278-414 689-704 1169-825 166-42 300-58 491-58 429 0 821 128 1160 379 203 151 387 350 515 559 60 98 143 270 177 365l28 80 110 35 5794 1785c11 0 36-28 66-72 175-264 460-535 745-706 406-246 789-352 1265-352 440 0 845 109 1228 332 58 34 70 38 85 26 9-7 2557-2370 2557-2370l-6-76c-19-217 35-488 138-697 190-381 535-657 943-754 253-60 553-44 794 44 287 103 536 297 701 545 227 341 294 779 180 1173-147 507-580 899-1099 994-136 25-411 23-536-5-121-26-254-73-352-124l-77-40-2409 2236 43 86c240 480 308 1033 196 1607-38 197-125 452-212 625-132 263-352 538-572 717-245 199-574 365-875 442l-92 24 5 6536 73 25c123 41 204 90 303 181l46 43 4996-2939 4240-5938c4-6 2-26-4-46-18-65-26-216-18-311 37-401 321-739 714-852 132-37 314-44 451-15 282 58 510 219 655 462 143 240 175 547 83 817-120 353-435 609-812 657l-52 7-3990 5578c-4 3 3599 3070 3607 3070 7 0 35-11 61-24 66-33 224-84 334-107 148-32 400-37 557-10 553 94 1009 475 1196 1000 92 257 114 561 60 827-107 527-503 974-1015 1147-687 233-1428-38-1813-663-105-171-176-374-207-591-18-123-7-397 19-513 12-50 18-93 14-97-5-3-3717-3159-3723-3159-7 0-4735 2777-4735 2777l3 34c9 122 5 405-7 479-26 166-88 365-156 500-318 631-969 1000-1660 940-232-20-422-74-624-177-68-34-128-60-135-56-10 6-4280 3394-4280 3394l3 157c3 167-6 242-45 383-83 300-279 570-536 736-95 62-258 138-348 163-176 49-401 62-579 35zm444-403c166-46 297-121 410-236 223-226 310-527 244-847-12-57-22-113-23-123-1-15 4706-3756 4709-3756s47 31 97 68c241 177 422 248 694 271 568 50 1118-290 1319-814 105-274 119-514 49-817-15-65-26-120-23-122 2-2 5217-3066 5224-3064s4117 3497 4125 3504c12 12 9 29-24 131-58 177-66 216-72 368-7 154 5 248 53 399 52 168 178 365 307 484 78 71 236 174 322 211 75 32 183 64 274 81 72 14 294 14 373 0 373-66 680-297 844-636 76-158 104-274 110-454 6-167-9-279-56-413-169-488-629-799-1145-774-198 10-358 59-530 164l-122 74-30 19-4086-3492c1-6 4316-6048 4316-6048l91 6c173 12 315-38 439-157 130-123 187-252 188-424 1-112-15-182-64-279-42-85-171-211-260-254-232-113-494-68-678 117-130 131-176 251-167 441 3 90 9 118 39 195l35 90-38 55-4376 6125-5310 3124c-18 9-37-6-161-129-157-155-190-180-277-210-45-16-302-70-331-70-2 0-2-7180-1-7180 2 0 64-11 138-25 508-94 827-256 1131-574 343-357 528-853 529-1414 1-421-90-730-332-1128-33-54-59-101-58-105 0-5 2866-2664 2869-2664s48 32 100 70c119 89 287 172 404 200 438 105 892-91 1119-482 84-146 125-285 134-454 29-548-377-1017-920-1063-159-13-312 6-447 56-312 116-542 370-632 698-30 106-36 320-13 452l18 105-2951 2736c-4 1-68-41-142-93-201-141-446-259-660-319-170-47-288-60-540-61-161 0-271 5-320 13-449 80-849 292-1155 614-130 136-215 256-344 486-29 50-57 92-63 92-5 0-6412-1980-6413-1983-1-1-12-42-24-92-74-289-210-532-411-735-246-247-529-396-870-456-116-21-369-23-490-4-336 51-631 196-874 430-209 202-338 411-419 680-54 179-70 303-64 499s18 260 93 476c31 88 57 170 57 182 2 17-43 53-228 185l-2713 1932c-8 5-51-29-127-102-185-179-358-308-550-413-383-210-768-310-1200-310-366 0-675 66-1016 217l-135 60-31 13-192-237c-198-246-2334-3396-2334-3396l18-30c131-224 176-385 161-571-17-205-86-359-229-511-178-189-392-274-657-261-242 13-439 110-593 293-130 155-185 298-194 505-10 234 47 407 190 577 199 237 476 336 801 287 68-10 121-14 125-9 5 5 2025 2980 2190 3222 170 250 191 278 253 324 38 27 68 53 68 58 0 4-39 45-87 90-464 436-730 941-808 1535-32 240-12 633 41 799 8 26 14 49 12 51-2 1-196 90-433 198l-4395 1995-117-117c-65-65-154-142-197-171-359-241-805-271-1200-80-128 61-203 116-312 224-233 234-354 524-354 850 0 591 432 1093 1015 1181 690 104 1321-395 1374-1087 7-90 0-253-14-335-5-30-3-34 42-56 26-14 4765-2167 4773-2167 4 0 11 33 14 73 9 84 49 165 176 356 238 355 566 640 965 836 258 127 510 201 804 235 121 14 421 14 542 0 453-52 848-214 1262-516l38-28 3410 3410-83 151c-183 328-245 571-226 883 16 260 90 485 251 760 30 52 52 98 49 102-4 3-137 65-297 136l-5712 2551c-4 0-33-32-63-70-73-93-238-252-325-313-387-271-872-342-1319-194-126 41-279 117-383 191-109 77-269 236-345 343-355 500-368 1159-33 1669 228 345 599 583 1010 646 103 16 337 15 440-1 310-48 587-189 816-416 303-299 462-720 428-1139-7-92-22-210-34-261-4-19 10-28 123-79l5593-2505 486-217 114 64c324 181 667 244 1019 189l150-22 45-5 2373 5080-55 63c-127 146-193 263-234 418-32 120-32 309-1 434 71 282 260 507 527 623 39 17 93 36 120 42 28 7 68 16 90 21 65 15 300 4 380-18z" fill="url(#A)"/><path d="M41025 34298c-65-43-234-119-310-139-63-17-114-22-238-23l-158-2-30-65-2329-4997c0-6 39-41 88-78 272-212 462-467 564-762 57-165 79-298 93-552l7-116 226-195 7034-6067c15-12 34-5 170 66 206 108 274 128 498 152l148 16 42 6v3589 3589l-27 6c-202 48-343 94-443 144-312 157-521 414-604 747-39 156-48 266-44 523l4 235 72 206-217 173-4504 3565c-7 0-25-9-42-21zm3-451c14-1 4305-3408 4302-3418-10-34-11-559 0-653 55-484 282-881 649-1137 98-69 270-156 386-196l80-28-3-3266-2-3266-53-7c-74-10-179-42-270-84l-78-35-22 20c-12 11-6924 5973-6924 5973l-7 93c-36 484-246 943-577 1263l-74 71 2133 4559c5 6 43 14 83 17 86 8 244 47 309 76 25 11 55 19 68 18z" fill="url(#B)"/><path d="M38546 27034c-15-40-199-305-258-373-217-248-523-425-870-503-89-20-130-23-308-23-232 0-292 11-495 86-126 48-166 67-324 156l-114 65-3403-3417c2-6 36-56 75-112 265-375 418-773 462-1202 15-143 6-493-15-616-42-244-109-453-227-710-65-141-68-150-51-166 9-9 2934-2098 2942-2105 13-10 32 1 120 73 238 194 441 300 690 360 156 37 437 44 602 14 335-60 625-216 869-467 206-213 327-438 414-776 15-60 33-108 38-108 6 0 6250 1929 6252 1932 3 2-2 72-11 154-32 301 3 610 102 897 96 276 227 485 496 793 19 21-6959 6057-6966 6060-8 3-16-3-20-12zm159-617l6274-5432 23-23-71-107c-158-239-284-538-346-820-30-138-46-273-52-447-5-134-9-178-19-178-7 0-5552-1710-5559-1710s-20 21-30 48c-27 70-91 195-145 283-341 551-933 905-1565 938-428 22-810-83-1166-320l-86-57-2473 1758c-5 0 9 46 31 103 76 192 129 392 164 614 22 136 31 499 16 658-39 409-166 805-374 1165l-55 95 2983 2961c11-2 66-25 123-50 430-190 881-209 1351-56 309 100 647 323 846 559 33 39 62 71 65 71s32-24 65-53z" fill="url(#C)"/><path d="M53430 12030V3430h900 899l4 1663c4 1732 3 1711 48 1942 84 427 295 748 629 952 250 153 598 227 953 202 224-16 395-64 555-157 356-206 535-564 572-1140 6-94 10-820 10-1809V3430h900 901l-4 1983-20 2107c-94 689-301 1157-676 1530-396 393-928 634-1526 689-314 29-579 23-870-19-547-80-1027-298-1394-633l-76-69-3 1506-2 1506h-900-900z" fill="url(#D)"/><path d="M5110 11674l-165-14c-435-37-906-149-1320-312-133-52-433-199-570-278-1030-593-1740-1581-1959-2725-46-242-64-401-75-665-45-1095 271-2059 938-2860 597-716 1474-1226 2456-1426 547-112 1140-132 1724-58 1473 185 2702 1027 3332 2284 341 681 473 1413 408 2254-81 1045-563 2012-1349 2708-610 539-1415 911-2245 1037-304 46-392 53-765 56-201 1-385 1-410-1zm497-1594c386-21 691-99 1018-260 524-257 916-672 1155-1220 282-647 288-1541 14-2192-241-571-646-1002-1188-1264-435-209-915-290-1424-239-237 24-472 75-662 145-317 116-675 349-899 586-504 533-742 1218-700 2022 36 698 293 1286 760 1737 429 415 975 649 1599 684l145 9c6 1 88-3 182-8z" fill="url(#E)"/><path d="M48645 11670c-841-68-1455-262-1984-628-551-381-899-963-970-1624-15-137-13-421 3-563 59-500 217-822 569-1162 247-238 505-403 827-528 346-135 800-268 1520-446 577-143 816-208 1011-275 286-98 526-245 644-395 151-193 174-447 60-684-117-245-400-427-780-504-352-71-864-81-1295-25-713 93-1485 379-2015 748-43 31-82 52-86 48-9-10-629-1388-629-1398 0-5 38-36 85-69 535-377 1377-679 2245-804 344-50 567-65 950-65 374 1 525 9 805 45 1034 131 1850 566 2281 1216 114 172 223 401 278 584 155 512 121 1148-85 1588-193 413-656 815-1194 1036-138 57-511 179-795 260-231 66-403 110-1100 279-528 129-946 273-1130 391-150 95-256 235-297 386-24 93-22 271 5 372 63 231 230 419 490 546 151 75 388 135 632 162 157 17 614 17 770 1 602-64 1174-246 1760-559l116-60c4 5 567 1394 571 1409 6 21-118 95-343 205-524 258-1124 418-1864 499-170 18-880 28-1055 14z" fill="url(#F)"/><path d="M14670 9754c-526-45-942-178-1297-413-148-97-220-156-355-290l-108-106v725h-1720V3430h1809l4 1733 24 1842c56 292 119 462 241 650 59 90 237 268 327 326 133 87 287 150 447 183 114 24 313 35 442 25 299-22 513-109 686-279 196-192 292-407 357-805 15-90 17-284 20-1887l4-1788h1809v1658l11 1768c30 309 121 594 256 796 63 95 229 261 320 322 199 130 405 197 669 215 252 18 480-18 660-103 124-59 201-114 294-212 175-184 267-394 327-744 16-98 18-232 20-1902l3-1798h1810v1868l-10 2017c-45 661-201 1140-510 1560-59 80-247 273-340 348-221 178-514 331-788 411-662 193-1433 159-2062-91-391-155-758-412-1012-710l-80-93-173 230c-348 414-898 694-1505 765-131 15-489 27-580 19z" fill="url(#G)"/><path d="m26060 9754c-395-34-636-80-942-180-891-291-1589-945-1932-1809-204-517-271-1139-185-1730 129-888 608-1636 1354-2112 493-315 1022-491 1690-563 163-18 664-24 842-11 797 60 1427 295 1923 717 110 94 283 269 279 282-2 5-953 1040-953 1040l-59-51c-200-178-416-315-632-402-105-42-310-97-445-119-294-48-703-36-980 30-444 104-798 339-1027 679-79 118-174 341-207 488l-6 27h4719l5 33c3 17 13 137 22 265 17 250 11 447-22 707-93 722-409 1372-896 1841-493 474-1133 762-1888 849-127 15-562 27-660 19zm609-1398c304-65 549-201 764-426 152-158 264-343 330-545 31-94 67-240 67-272v-23h-3072l7 43c25 162 105 391 184 530 189 329 526 582 902 676 164 41 261 50 484 46 180-3 228-7 334-29z" fill="url(#H)"/><path d="M33220 9754l-170-14c-235-21-535-82-730-148-344-118-684-301-948-508-129-102-388-364-483-489-341-448-535-944-588-1500-35-370-12-763 63-1093 177-764 659-1421 1340-1821 612-360 1351-509 2106-425 603 67 1124 304 1490 678 35 36 68 66 72 66 19 0-1-504-27-671-55-350-175-613-377-824-245-256-580-398-1068-451-196-21-648-15-840 10-651 88-1274 328-1683 649-21 16-39 28-41 26-22-24-714-1294-709-1299 5-4 42-32 83-61 269-195 641-377 1010-497 631-204 1334-302 2075-289 877 16 1551 185 2101 528 223 138 518 407 665 604 360 483 557 1089 609 1870 6 93 10 5575 10 5575h-1710v-805l-52 60c-28 33-97 105-152 160-373 369-904 601-1496 654-126 12-478 21-550 15zm829-1500c516-67 942-344 1174-764 235-426 231-1085-10-1505-260-456-731-730-1306-764-578-34-1068 138-1402 491-196 207-315 445-366 734-30 171-30 435-1 596 60 324 191 571 418 789 367 351 894 501 1493 423z" fill="url(#I)"/><path d="m41175 9754c-569-28-1024-109-1500-268-356-119-595-231-881-414l-34-196c38-72 623-1102 666-1071 213 153 451 269 759 368 340 110 648 153 1024 144 235-6 340-18 511-62 437-112 724-395 819-807 18-77 41-263 41-330v-28h-817c-450 0-896-5-990-10-975-54-1620-321-1995-825-78-105-173-283-216-406-109-311-130-704-56-1034 71-314 217-586 438-814 369-379 888-596 1561-652 178-15 578-6 745 15 318 42 536 105 770 221 271 136 475 317 645 575l30 45 3-387 2-388h1690v1778c0 1759-5 2059-35 2302-76 617-292 1104-650 1465-500 506-1235 764-2215 779-135 2-276 2-315 0zm1405-4033v-319l-35-84c-109-257-300-461-556-593-190-97-372-147-609-165-273-20-533 17-725 105-322 146-481 442-420 780 39 219 160 369 377 470 126 58 306 99 498 115 52 4 404 8 783 9l687 1v-319z" fill="url(#J)"/><path d="M63650 9749c-318-16-701-72-995-145-518-130-931-301-1297-538-49-31-88-58-88-59 0-5 639-1249 644-1254 3-3 47 24 98 60 360 250 810 417 1318 489 130 18 625 18 740-1 366-58 579-155 770-350s290-435 307-743l6-118h-814c-448 0-899-5-1004-10-559-30-997-131-1358-311-473-237-796-641-897-1124-33-158-43-278-38-479 8-299 56-494 184-751 138-277 321-482 598-667s633-316 1011-372c345-51 807-47 1139 10 581 100 1006 365 1283 800 9 15 12-65 12-368l1-388h1690l-10 3870c-73 1029-505 1736-1295 2120-536 260-1203 370-2005 329zm1501-3709l-43-754c-239-501-771-772-1428-725-395 28-688 185-815 437-62 126-83 321-50 477 56 266 272 445 632 521 173 37 279 41 1016 43l688 1z" fill="url(#K)"/><path d="M72470 9760l-380-21c-739-69-1338-356-1702-818l-58-73-2 408-3 409-1725 5V3430h1810l15 3272c53 453 211 794 476 1026 263 231 603 358 1021 381 133 7 395 0 506-13l42-6v1670z" fill="url(#L)"/><path d="M76140 9753c-298-16-643-79-925-170-982-316-1718-1046-2029-2012-226-702-202-1554 61-2221 158-398 363-711 662-1010 551-550 1261-871 2156-975 304-35 810-31 1140 11 633 79 1185 297 1610 634 87 69 345 318 345 333 0 4-955 1045-955 1045l-59-52c-293-256-567-403-901-485-376-92-871-86-1240 14-357 97-679 308-885 580-109 143-204 338-246 500l-20 78c-5 16 4715 17 4715 17l5 53c33 285 35 630 6 887-85 760-406 1432-918 1922-445 426-1093 727-1757 817-262 36-522 47-765 34zm571-1391c188-39 366-108 504-194 285-179 506-459 615-778 21-63 70-262 70-287 0-10-3072-13-3072-13l7 48c11 71 52 228 82 307 185 496 621 845 1154 924l99 15c14 3 120 3 235 1 161-3 233-8 306-23z" fill="url(#M)"/></g></g></svg>