<svg width="96" height="107" viewBox="0 0 96 107" fill="none" xmlns="http://www.w3.org/2000/svg">
<path d="M95.7694 106.363H14V0H70.2165L95.7694 25.3245V106.363Z" fill="#A75FD9"/>
<path d="M92.2753 28.0582H68V4L92.2753 28.0582Z" fill="#DBA7FF"/>
<rect y="16" width="55" height="28" rx="4" fill="#8950B1"/>
<path d="M12.5879 24.2031L15.875 33.4844L19.1445 24.2031H22.6074V37H19.9619V33.502L20.2256 27.4639L16.7715 37H14.9609L11.5156 27.4727L11.7793 33.502V37H9.14258V24.2031H12.5879ZM31.7203 32.1836H33.1705V34.2314H31.7203V37H29.1803V34.2314H23.9332L23.819 32.6318L29.1539 24.2031H31.7203V32.1836ZM26.3502 32.1836H29.1803V27.666L29.0133 27.9561L26.3502 32.1836ZM39.1106 33.8271L42.011 24.2031H44.9465L40.4905 37H37.7395L33.301 24.2031H36.2278L39.1106 33.8271Z" fill="#CC98F1"/>
<path d="M55.0063 53C42.8525 53 33 62.8525 33 75.0063C33 87.1601 42.8525 97.0126 55.0063 97.0126C67.1601 97.0126 77.0126 87.1601 77.0126 75.0063C77.0126 62.8525 67.1601 53 55.0063 53ZM63.4425 75.8049L51.4799 82.7114C50.8647 83.0665 50.0964 82.6229 50.0964 81.9128V68.0997C50.0964 67.3897 50.8652 66.9456 51.4799 67.3007L63.442 74.2072C64.0572 74.5622 64.0572 75.4498 63.4425 75.8049Z" fill="#CC98F1"/>
</svg>
