<svg width="96" height="107" viewBox="0 0 96 107" fill="none" xmlns="http://www.w3.org/2000/svg">
<path d="M95.7694 106.363H14V0H70.2165L95.7694 25.3245V106.363Z" fill="#A75FD9"/>
<path d="M92.2753 28.0582H68V4L92.2753 28.0582Z" fill="#DBA7FF"/>
<rect y="16" width="55" height="28" rx="4" fill="#8950B1"/>
<path d="M17.4922 32.5137L19.1191 23.9141H21.6011L18.9199 36H16.4131L14.4458 27.915L12.4785 36H9.97168L7.29053 23.9141H9.77246L11.4077 32.4971L13.3999 23.9141H15.5083L17.4922 32.5137ZM25.8 23.9141L28.9045 32.6797L31.9924 23.9141H35.2629V36H32.7644V32.6963L33.0134 26.9937L29.7512 36H28.0412L24.7873 27.002L25.0363 32.6963V36H22.5461V23.9141H25.8ZM41.4955 33.0034L44.2348 23.9141H47.0072L42.7987 36H40.2006L36.0087 23.9141H38.7729L41.4955 33.0034Z" fill="#CC98F1"/>
<path d="M55.0063 54C42.8525 54 33 63.8525 33 76.0063C33 88.1601 42.8525 98.0126 55.0063 98.0126C67.1601 98.0126 77.0126 88.1601 77.0126 76.0063C77.0126 63.8525 67.1601 54 55.0063 54ZM63.4425 76.8049L51.4799 83.7114C50.8647 84.0665 50.0964 83.6229 50.0964 82.9128V69.0997C50.0964 68.3897 50.8652 67.9456 51.4799 68.3007L63.442 75.2072C64.0572 75.5622 64.0572 76.4498 63.4425 76.8049Z" fill="#CC98F1"/>
</svg>
