<svg width="96" height="107" viewBox="0 0 96 107" fill="none" xmlns="http://www.w3.org/2000/svg">
<path d="M95.7694 106.363H14V0H70.2165L95.7694 25.3245V106.363Z" fill="#7883A4"/>
<path d="M92.2753 28.0582H68V4L92.2753 28.0582Z" fill="#9AA6CA"/>
<rect y="16" width="55" height="28" rx="4" fill="#4B536D"/>
<path d="M13.0791 36V23.9141H16.7979C17.8604 23.9141 18.8094 24.1548 19.645 24.6362C20.4862 25.1121 21.1419 25.7928 21.6123 26.6782C22.0827 27.5581 22.3179 28.5597 22.3179 29.6831V30.2393C22.3179 31.3626 22.0854 32.3615 21.6206 33.2358C21.1613 34.1102 20.5111 34.7881 19.6699 35.2695C18.8288 35.751 17.8797 35.9945 16.8228 36H13.0791ZM15.5693 25.9312V33.9995H16.7729C17.7469 33.9995 18.4912 33.6813 19.0059 33.0449C19.5205 32.4085 19.7834 31.4982 19.7944 30.314V29.6748C19.7944 28.4463 19.5399 27.5166 19.0308 26.8857C18.5216 26.2493 17.7773 25.9312 16.7979 25.9312H15.5693ZM27.8458 28.0811L30.1119 23.9141H32.9757L29.4562 29.9072L33.067 36H30.1701L27.8458 31.7666L25.5216 36H22.6246L26.2355 29.9072L22.7159 23.9141H25.5797L27.8458 28.0811ZM36.387 33.9995H41.6746V36H33.8967V23.9141H36.387V33.9995Z" fill="#9AA6CA"/>
<path fill-rule="evenodd" clip-rule="evenodd" d="M55.0039 83.4609L39.0078 73.4414V88.7344H71V73.4414L55.0039 83.4609ZM39.0078 68.7305L55.0039 78.75L71 68.7305L55.0039 58.7461L39.0078 68.7305ZM75.0078 68.7305V88.7344C75.0078 89.8359 74.6152 90.7793 73.8301 91.5645C73.0449 92.3496 72.1016 92.7422 71 92.7422H39.0078C37.9062 92.7422 36.9629 92.3496 36.1777 91.5645C35.3926 90.7793 35 89.8359 35 88.7344V68.7305C35 68.0039 35.1758 67.3418 35.5273 66.7441C35.8789 66.1465 36.3477 65.6719 36.9336 65.3203L55.0039 54L73.0391 65.3203C73.625 65.6719 74.0996 66.1465 74.4629 66.7441C74.8262 67.3418 75.0078 68.0039 75.0078 68.7305Z" fill="#9AA6CA"/>
</svg>
