<svg width="96" height="107" viewBox="0 0 96 107" fill="none" xmlns="http://www.w3.org/2000/svg">
<path d="M95.7694 106.363H14V0H70.2165L95.7694 25.3245V106.363Z" fill="#7883A4"/>
<path d="M92.2753 28.0582H68V4L92.2753 28.0582Z" fill="#9AA6CA"/>
<rect y="16" width="55" height="28" rx="4" fill="#4B536D"/>
<path d="M13.333 23.9141L16.4375 32.6797L19.5254 23.9141H22.7959V36H20.2974V32.6963L20.5464 26.9937L17.2842 36H15.5742L12.3203 27.002L12.5693 32.6963V36H10.0791V23.9141H13.333ZM30.8058 32.8291C30.8058 32.3587 30.6398 31.999 30.3077 31.75C29.9757 31.4954 29.3781 31.2298 28.5148 30.9531C27.6515 30.6709 26.9681 30.3942 26.4645 30.123C25.0921 29.3815 24.4059 28.3826 24.4059 27.1265C24.4059 26.4735 24.5885 25.8924 24.9537 25.3833C25.3245 24.8687 25.853 24.4674 26.5392 24.1797C27.2309 23.8919 28.0057 23.748 28.8634 23.748C29.7267 23.748 30.4959 23.9058 31.171 24.2212C31.8462 24.5311 32.3691 24.971 32.7399 25.541C33.1162 26.111 33.3043 26.7585 33.3043 27.4834H30.8141C30.8141 26.93 30.6398 26.5011 30.2911 26.1968C29.9425 25.8869 29.4528 25.7319 28.8219 25.7319C28.2132 25.7319 27.74 25.862 27.4025 26.1221C27.0649 26.3766 26.8961 26.7142 26.8961 27.1348C26.8961 27.5277 27.0926 27.8569 27.4855 28.1226C27.8839 28.3882 28.4677 28.6372 29.2369 28.8696C30.6536 29.2957 31.6857 29.8242 32.3331 30.4551C32.9806 31.0859 33.3043 31.8717 33.3043 32.8125C33.3043 33.8584 32.9087 34.6802 32.1173 35.2778C31.326 35.87 30.2607 36.166 28.9215 36.166C27.9918 36.166 27.1451 35.9972 26.3815 35.6597C25.6178 35.3166 25.034 34.849 24.63 34.2568C24.2316 33.6647 24.0324 32.9785 24.0324 32.1982H26.5309C26.5309 33.5319 27.3278 34.1987 28.9215 34.1987C29.5136 34.1987 29.9757 34.0798 30.3077 33.8418C30.6398 33.5983 30.8058 33.2607 30.8058 32.8291ZM44.1282 34.4727C43.6799 35.0094 43.0463 35.4272 42.2273 35.7261C41.4083 36.0194 40.5007 36.166 39.5047 36.166C38.4588 36.166 37.5401 35.9391 36.7488 35.4854C35.963 35.026 35.3543 34.362 34.9226 33.4932C34.4965 32.6243 34.2779 31.6034 34.2669 30.4302V29.6084C34.2669 28.402 34.4688 27.3589 34.8728 26.479C35.2823 25.5936 35.8689 24.9185 36.6326 24.4536C37.4018 23.9832 38.301 23.748 39.3303 23.748C40.7636 23.748 41.8842 24.0911 42.6922 24.7773C43.5001 25.458 43.9788 26.4513 44.1282 27.7573H41.7044C41.5937 27.0656 41.3474 26.5592 40.9656 26.2383C40.5893 25.9173 40.0691 25.7568 39.405 25.7568C38.5584 25.7568 37.9137 26.075 37.471 26.7114C37.0283 27.3478 36.8041 28.2941 36.7986 29.5503V30.3223C36.7986 31.5895 37.0393 32.5469 37.5208 33.1943C38.0022 33.8418 38.7078 34.1655 39.6375 34.1655C40.5727 34.1655 41.2395 33.9663 41.638 33.5679V31.4844H39.3718V29.6499H44.1282V34.4727Z" fill="#9AA6CA"/>
<path fill-rule="evenodd" clip-rule="evenodd" d="M55.0039 83.4609L39.0078 73.4414V88.7344H71V73.4414L55.0039 83.4609ZM39.0078 68.7305L55.0039 78.75L71 68.7305L55.0039 58.7461L39.0078 68.7305ZM75.0078 68.7305V88.7344C75.0078 89.8359 74.6152 90.7793 73.8301 91.5645C73.0449 92.3496 72.1016 92.7422 71 92.7422H39.0078C37.9062 92.7422 36.9629 92.3496 36.1777 91.5645C35.3926 90.7793 35 89.8359 35 88.7344V68.7305C35 68.0039 35.1758 67.3418 35.5273 66.7441C35.8789 66.1465 36.3477 65.6719 36.9336 65.3203L55.0039 54L73.0391 65.3203C73.625 65.6719 74.0996 66.1465 74.4629 66.7441C74.8262 67.3418 75.0078 68.0039 75.0078 68.7305Z" fill="#9AA6CA"/>
</svg>
