<svg width="96" height="107" viewBox="0 0 96 107" fill="none" xmlns="http://www.w3.org/2000/svg">
<path d="M95.7694 106.363H14V0H70.2165L95.7694 25.3245V106.363Z" fill="#A75FD9"/>
<path d="M92.2753 28.0582H68V4L92.2753 28.0582Z" fill="#DBA7FF"/>
<rect y="16" width="55" height="28" rx="4" fill="#8950B1"/>
<path d="M20.8418 31.7705H15.7793V37H13.1426V24.2031H21.4746V26.3389H15.7793V29.6436H20.8418V31.7705ZM25.2086 34.8818H30.8073V37H22.5719V24.2031H25.2086V34.8818ZM34.8137 33.8271L37.7141 24.2031H40.6497L36.1936 37H33.4426L29.0042 24.2031H31.9309L34.8137 33.8271Z" fill="#CC98F1"/>
<path d="M55.0063 53C42.8525 53 33 62.8525 33 75.0063C33 87.1601 42.8525 97.0126 55.0063 97.0126C67.1601 97.0126 77.0126 87.1601 77.0126 75.0063C77.0126 62.8525 67.1601 53 55.0063 53ZM63.4425 75.8049L51.4799 82.7114C50.8647 83.0665 50.0964 82.6229 50.0964 81.9128V68.0997C50.0964 67.3897 50.8652 66.9456 51.4799 67.3007L63.442 74.2072C64.0572 74.5622 64.0572 75.4498 63.4425 75.8049Z" fill="#CC98F1"/>
</svg>
